<svg width="1113" height="211" viewBox="0 0 1113 211" fill="none" xmlns="http://www.w3.org/2000/svg">
<g opacity="0.6">
<mask id="path-1-inside-1_3007_1000" fill="white">
<path d="M1113 403.5C1113 508.64 1056.4 609.628 955.249 684.964C854.098 760.3 716.386 804.034 571.431 806.855C426.476 809.676 285.727 771.361 179.148 700.068C72.5697 628.774 8.57971 530.133 0.801229 425.145C-6.97725 320.156 42.0702 217.112 137.502 137.95C232.934 58.7885 367.211 9.76154 511.749 1.30673C656.287 -7.14807 799.668 25.6371 911.368 92.6826C1023.07 159.728 1094.26 255.738 1109.8 360.273L1102.38 360.853C1087.05 257.719 1016.81 162.996 906.61 96.8496C796.408 30.703 654.949 -1.64266 512.349 6.69879C369.749 15.0402 237.271 63.4099 143.119 141.51C48.967 219.611 0.57711 321.273 8.2513 424.854C15.9255 528.436 79.0576 625.754 184.207 696.092C289.357 766.429 428.219 804.23 571.231 801.447C714.243 798.664 850.108 755.516 949.903 681.19C1049.7 606.864 1105.54 507.231 1105.54 403.5H1113Z"/>
</mask>
<path d="M1113 403.5C1113 508.64 1056.4 609.628 955.249 684.964C854.098 760.3 716.386 804.034 571.431 806.855C426.476 809.676 285.727 771.361 179.148 700.068C72.5697 628.774 8.57971 530.133 0.801229 425.145C-6.97725 320.156 42.0702 217.112 137.502 137.95C232.934 58.7885 367.211 9.76154 511.749 1.30673C656.287 -7.14807 799.668 25.6371 911.368 92.6826C1023.07 159.728 1094.26 255.738 1109.8 360.273L1102.38 360.853C1087.05 257.719 1016.81 162.996 906.61 96.8496C796.408 30.703 654.949 -1.64266 512.349 6.69879C369.749 15.0402 237.271 63.4099 143.119 141.51C48.967 219.611 0.57711 321.273 8.2513 424.854C15.9255 528.436 79.0576 625.754 184.207 696.092C289.357 766.429 428.219 804.23 571.231 801.447C714.243 798.664 850.108 755.516 949.903 681.19C1049.7 606.864 1105.54 507.231 1105.54 403.5H1113Z" fill="#8A38F5" stroke="#2E254D" stroke-width="4" mask="url(#path-1-inside-1_3007_1000)"/>
</g>
</svg>
